<svg xmlns="http://www.w3.org/2000/svg" viewBox="0 0 32 32">
  <path fill="#25D366" d="M16.04 2.01C8.27 2.01 2 8.28 2 16.05c0 2.74.8 5.29 2.17 7.44L2 30l6.67-2.1a14 14 0 0 0 7.37 2.05c7.77 0 14.04-6.27 14.04-14.04C30.08 8.28 23.8 2.01 16.04 2.01z"/>
  <path fill="#fff" d="M23.5 19.62c-.1-.16-.37-.26-.77-.46-.4-.2-2.34-1.15-2.7-1.28-.36-.13-.62-.2-.88.2-.26.4-1 1.28-1.22 1.54-.23.26-.45.3-.85.1-.4-.2-1.7-.62-3.23-1.98-1.2-1.06-2-2.37-2.24-2.77-.23-.4-.02-.62.18-.82.18-.18.4-.45.6-.67.2-.23.26-.4.4-.66.13-.26.06-.5-.03-.67-.1-.16-.88-2.12-1.2-2.9-.31-.75-.62-.65-.85-.66h-.72c-.23 0-.6.08-.92.4-.31.31-1.2 1.17-1.2 2.86 0 1.69 1.23 3.32 1.4 3.55.16.23 2.42 3.7 5.86 5.19.82.35 1.46.56 1.96.72.82.26 1.56.22 2.15.14.66-.1 2.34-.95 2.67-1.87.33-.92.33-1.7.23-1.87z"/>
</svg>
