<svg xmlns="http://www.w3.org/2000/svg" viewBox="0 0 32 32" aria-hidden="true">
  <path fill="#25D366" d="M16 2.5A13.5 13.5 0 0 0 4.2 22.7L3 29l6.5-1.7A13.5 13.5 0 1 0 16 2.5z"/>
  <path fill="#fff" d="M23.2 19.3c-.3-.1-1.7-.8-1.9-.9-.3-.1-.5-.1-.7.1-.2.3-.8.9-1 .9-.2.1-.4.1-.7-.1-.3-.1-1.2-.4-2.3-1.4-.9-.8-1.4-1.7-1.6-2-.2-.3 0-.5.1-.7l.5-.6c.1-.2.2-.4.3-.6.1-.2 0-.4 0-.6l-.9-2.1c-.2-.5-.4-.4-.7-.4h-.6c-.2 0-.6.1-.9.4-.3.3-1.2 1.1-1.2 2.8s1.2 3.2 1.4 3.4c.2.2 2.4 3.7 5.9 5.1.8.3 1.4.5 1.9.6.8.2 1.5.2 2.1.1.6-.1 1.7-.7 2-1.4.2-.7.2-1.3.1-1.4-.1-.2-.3-.2-.6-.3z"/>
</svg>